HIERARCHY
ROOT Hips
{
	OFFSET 0.000000 71.427986 0.000000
	CHANNELS 6 Xposition Yposition Zposition Xrotation Yrotation Zrotation
	JOINT Pelvis
	{
		OFFSET 0.000000 0.000000 0.000000
		CHANNELS 3 Xrotation Yrotation Zrotation
		JOINT LeftUpLeg
		{
			OFFSET 6.797100 -2.508499 -1.318700
			CHANNELS 3 Xrotation Yrotation Zrotation
			JOINT LeftLeg
			{
				OFFSET 0.069008 -29.241863 0.690200
				CHANNELS 3 Xrotation Yrotation Zrotation
				JOINT LeftFoot
				{
					OFFSET -0.069008 -29.568123 -0.266800
					CHANNELS 3 Xrotation Yrotation Zrotation
					JOINT LeftToeBase
					{
						OFFSET 3.145500 -8.631000 16.059900
						CHANNELS 3 Xrotation Yrotation Zrotation
						End Site
						{
							OFFSET 0.000000 18.501587 0.000000
						}
					}
				}
			}
			JOINT Left_ShortSleeve
			{
				OFFSET 0.265923 -10.480953 1.153800
				CHANNELS 3 Xrotation Yrotation Zrotation
				End Site
				{
					OFFSET 1.725763 19.823879 0.000000
				}
			}
		}
		JOINT RightUpLeg
		{
			OFFSET -6.797100 -2.508499 -1.318700
			CHANNELS 3 Xrotation Yrotation Zrotation
			JOINT RightLeg
			{
				OFFSET -0.082453 -29.241932 0.688000
				CHANNELS 3 Xrotation Yrotation Zrotation
				JOINT RightFoot
				{
					OFFSET 0.082453 -29.568058 -0.264600
					CHANNELS 3 Xrotation Yrotation Zrotation
					JOINT RightToeBase
					{
						OFFSET -3.115300 -8.682800 16.113400
						CHANNELS 3 Xrotation Yrotation Zrotation
						End Site
						{
							OFFSET 0.000000 18.567114 0.000000
						}
					}
				}
			}
			JOINT Right_ShortSleeve
			{
				OFFSET -0.265923 -10.480953 1.153800
				CHANNELS 3 Xrotation Yrotation Zrotation
				End Site
				{
					OFFSET -1.725766 19.823910 0.000000
				}
			}
		}
	}
	JOINT Spine
	{
		OFFSET 0.000000 13.368103 0.470500
		CHANNELS 3 Xrotation Yrotation Zrotation
		JOINT Spine1
		{
			OFFSET 0.147000 13.837402 0.538800
			CHANNELS 3 Xrotation Yrotation Zrotation
			JOINT Spine2
			{
				OFFSET 0.168000 16.242897 -1.435500
				CHANNELS 3 Xrotation Yrotation Zrotation
				JOINT Neck
				{
					OFFSET 0.217200 18.631500 -1.679100
					CHANNELS 3 Xrotation Yrotation Zrotation
					JOINT Head
					{
						OFFSET 0.000000 6.599396 1.385900
						CHANNELS 3 Xrotation Yrotation Zrotation
						JOINT Hat
						{
							OFFSET -0.532200 27.220596 -10.096100
							CHANNELS 3 Xrotation Yrotation Zrotation
							End Site
							{
								OFFSET 0.000000 22.029861 0.000000
							}
						}
						JOINT HairD
						{
							OFFSET -10.777400 17.437393 -1.325900
							CHANNELS 3 Xrotation Yrotation Zrotation
							JOINT HairD1
							{
								OFFSET -3.290299 -11.051193 1.062200
								CHANNELS 3 Xrotation Yrotation Zrotation
								End Site
								{
									OFFSET 0.000000 11.579437 0.000000
								}
							}
						}
						JOINT HairB
						{
							OFFSET -10.777400 17.437393 1.467900
							CHANNELS 3 Xrotation Yrotation Zrotation
							JOINT HairB1
							{
								OFFSET -1.561200 -12.956299 3.590200
								CHANNELS 3 Xrotation Yrotation Zrotation
								End Site
								{
									OFFSET 0.000000 13.534866 0.000000
								}
							}
						}
						JOINT HairA
						{
							OFFSET 9.713100 17.437393 1.467900
							CHANNELS 3 Xrotation Yrotation Zrotation
							JOINT HairA1
							{
								OFFSET 1.561200 -12.956299 3.590200
								CHANNELS 3 Xrotation Yrotation Zrotation
								End Site
								{
									OFFSET 0.000000 13.534866 0.000000
								}
							}
						}
						JOINT HairC
						{
							OFFSET 9.713100 17.437393 -1.325900
							CHANNELS 3 Xrotation Yrotation Zrotation
							JOINT HairC1
							{
								OFFSET 3.290300 -11.051193 1.062200
								CHANNELS 3 Xrotation Yrotation Zrotation
								End Site
								{
									OFFSET 0.000000 11.579437 0.000000
								}
							}
						}
					}
				}
				JOINT LeftShoulder
				{
					OFFSET 5.101800 15.108002 -2.763700
					CHANNELS 3 Xrotation Yrotation Zrotation
					JOINT LeftArm
					{
						OFFSET 9.825497 2.506317 -1.597400
						CHANNELS 3 Xrotation Yrotation Zrotation
						JOINT LeftForeArm
						{
							OFFSET 21.966244 0.000000 0.000000
							CHANNELS 3 Xrotation Yrotation Zrotation
							JOINT LeftHand
							{
								OFFSET 33.879036 0.000000 0.000000
								CHANNELS 3 Xrotation Yrotation Zrotation
								JOINT LeftHandThumb1
								{
									OFFSET 6.715286 -2.359680 3.363841
									CHANNELS 3 Xrotation Yrotation Zrotation
									JOINT LeftHandThumb2
									{
										OFFSET 2.507072 -1.447464 1.447461
										CHANNELS 3 Xrotation Yrotation Zrotation
										JOINT LeftHandThumb3
										{
											OFFSET 2.898338 -1.673355 1.673357
											CHANNELS 3 Xrotation Yrotation Zrotation
											End Site
											{
												OFFSET -0.295959 3.727692 -0.131651
											}
										}
									}
								}
								JOINT LeftHandIndex1
								{
									OFFSET 14.190811 -0.254547 3.840278
									CHANNELS 3 Xrotation Yrotation Zrotation
									JOINT LeftHandIndex2
									{
										OFFSET 3.551727 0.000000 -0.000000
										CHANNELS 3 Xrotation Yrotation Zrotation
										JOINT LeftHandIndex3
										{
											OFFSET 2.894196 0.000000 0.000000
											CHANNELS 3 Xrotation Yrotation Zrotation
											End Site
											{
												OFFSET -1.000603 2.690872 0.366626
											}
										}
									}
								}
								JOINT LeftHandMiddle1
								{
									OFFSET 13.776489 0.000000 0.000000
									CHANNELS 3 Xrotation Yrotation Zrotation
									JOINT LeftHandMiddle2
									{
										OFFSET 3.438232 0.000000 0.000000
										CHANNELS 3 Xrotation Yrotation Zrotation
										JOINT LeftHandMiddle3
										{
											OFFSET 3.691551 0.000000 0.000000
											CHANNELS 3 Xrotation Yrotation Zrotation
											End Site
											{
												OFFSET -1.082298 3.499527 0.457670
											}
										}
									}
								}
								JOINT LeftHandRing1
								{
									OFFSET 13.966164 -0.268127 -3.067488
									CHANNELS 3 Xrotation Yrotation Zrotation
									JOINT LeftHandRing2
									{
										OFFSET 3.162567 0.000000 0.000000
										CHANNELS 3 Xrotation Yrotation Zrotation
										JOINT LeftHandRing3
										{
											OFFSET 3.324348 0.000000 0.000000
											CHANNELS 3 Xrotation Yrotation Zrotation
											End Site
											{
												OFFSET -0.861900 3.184998 0.405154
											}
										}
									}
								}
								JOINT LeftHandPinky1
								{
									OFFSET 13.131393 -0.168503 -5.746925
									CHANNELS 3 Xrotation Yrotation Zrotation
									JOINT LeftHandPinky2
									{
										OFFSET 2.849182 0.000000 0.000000
										CHANNELS 3 Xrotation Yrotation Zrotation
										JOINT LeftHandPinky3
										{
											OFFSET 2.805038 0.000000 0.000000
											CHANNELS 3 Xrotation Yrotation Zrotation
											End Site
											{
												OFFSET -0.882500 2.642609 0.325652
											}
										}
									}
								}
							}
							JOINT Left_Sleeve
							{
								OFFSET 6.592125 -0.646545 0.805568
								CHANNELS 3 Xrotation Yrotation Zrotation
								End Site
								{
									OFFSET -0.000179 20.275787 -0.000000
								}
							}
						}
					}
				}
				JOINT RightShoulder
				{
					OFFSET -5.731700 15.108002 -2.763700
					CHANNELS 3 Xrotation Yrotation Zrotation
					JOINT RightArm
					{
						OFFSET -9.825497 2.506317 -1.597400
						CHANNELS 3 Xrotation Yrotation Zrotation
						JOINT RightForeArm
						{
							OFFSET -21.966242 0.000000 0.000000
							CHANNELS 3 Xrotation Yrotation Zrotation
							JOINT RightHand
							{
								OFFSET -33.879032 0.000000 0.000000
								CHANNELS 3 Xrotation Yrotation Zrotation
								JOINT RightHandThumb1
								{
									OFFSET -6.715286 -2.359680 3.363841
									CHANNELS 3 Xrotation Yrotation Zrotation
									JOINT RightHandThumb2
									{
										OFFSET -2.507072 -1.447464 1.447461
										CHANNELS 3 Xrotation Yrotation Zrotation
										JOINT RightHandThumb3
										{
											OFFSET -2.898338 -1.673355 1.673357
											CHANNELS 3 Xrotation Yrotation Zrotation
											End Site
											{
												OFFSET 0.295959 3.727692 -0.131651
											}
										}
									}
								}
								JOINT RightHandIndex1
								{
									OFFSET -14.190811 -0.254547 3.840278
									CHANNELS 3 Xrotation Yrotation Zrotation
									JOINT RightHandIndex2
									{
										OFFSET -3.551727 0.000000 -0.000000
										CHANNELS 3 Xrotation Yrotation Zrotation
										JOINT RightHandIndex3
										{
											OFFSET -2.894196 0.000000 0.000000
											CHANNELS 3 Xrotation Yrotation Zrotation
											End Site
											{
												OFFSET 1.000603 2.690872 0.366626
											}
										}
									}
								}
								JOINT RightHandMiddle1
								{
									OFFSET -13.776489 0.000000 0.000000
									CHANNELS 3 Xrotation Yrotation Zrotation
									JOINT RightHandMiddle2
									{
										OFFSET -3.438232 0.000000 0.000000
										CHANNELS 3 Xrotation Yrotation Zrotation
										JOINT RightHandMiddle3
										{
											OFFSET -3.691551 0.000000 0.000000
											CHANNELS 3 Xrotation Yrotation Zrotation
											End Site
											{
												OFFSET 1.082298 3.499527 0.457670
											}
										}
									}
								}
								JOINT RightHandRing1
								{
									OFFSET -13.966164 -0.268127 -3.067488
									CHANNELS 3 Xrotation Yrotation Zrotation
									JOINT RightHandRing2
									{
										OFFSET -3.162567 0.000000 0.000000
										CHANNELS 3 Xrotation Yrotation Zrotation
										JOINT RightHandRing3
										{
											OFFSET -3.324348 0.000000 0.000000
											CHANNELS 3 Xrotation Yrotation Zrotation
											End Site
											{
												OFFSET 0.861900 3.184998 0.405154
											}
										}
									}
								}
								JOINT RightHandPinky1
								{
									OFFSET -13.131393 -0.168503 -5.746925
									CHANNELS 3 Xrotation Yrotation Zrotation
									JOINT RightHandPinky2
									{
										OFFSET -2.849182 0.000000 0.000000
										CHANNELS 3 Xrotation Yrotation Zrotation
										JOINT RightHandPinky3
										{
											OFFSET -2.805038 0.000000 0.000000
											CHANNELS 3 Xrotation Yrotation Zrotation
											End Site
											{
												OFFSET 0.882500 2.642609 0.325652
											}
										}
									}
								}
							}
							JOINT Right_Sleeve
							{
								OFFSET -6.592125 -0.646545 0.805568
								CHANNELS 3 Xrotation Yrotation Zrotation
								End Site
								{
									OFFSET 0.000179 20.275787 -0.000000
								}
							}
						}
					}
				}
				JOINT Bind_Right_JacketString
				{
					OFFSET -3.534800 11.969597 7.200700
					CHANNELS 3 Xrotation Yrotation Zrotation
					JOINT Bind_Right_JacketString1
					{
						OFFSET -0.319900 -6.102600 2.794100
						CHANNELS 3 Xrotation Yrotation Zrotation
						End Site
						{
							OFFSET 0.000000 6.719452 0.000000
						}
					}
				}
				JOINT Bind_Left_JacketString
				{
					OFFSET 2.904800 11.969597 7.200700
					CHANNELS 3 Xrotation Yrotation Zrotation
					JOINT Bind_Left_JacketString1
					{
						OFFSET 0.364800 -5.904503 3.186800
						CHANNELS 3 Xrotation Yrotation Zrotation
						End Site
						{
							OFFSET 0.000000 6.719513 0.000000
						}
					}
				}
				JOINT HairE
				{
					OFFSET 5.915200 17.612701 -11.592200
					CHANNELS 3 Xrotation Yrotation Zrotation
					JOINT HairE1
					{
						OFFSET 0.289200 -7.171898 -1.284500
						CHANNELS 3 Xrotation Yrotation Zrotation
						End Site
						{
							OFFSET 0.000000 7.291756 0.000000
						}
					}
				}
				JOINT HairF
				{
					OFFSET -0.864800 17.612701 -11.592200
					CHANNELS 3 Xrotation Yrotation Zrotation
					JOINT HairF1
					{
						OFFSET 0.000000 -14.087097 -2.127501
						CHANNELS 3 Xrotation Yrotation Zrotation
						End Site
						{
							OFFSET 0.000000 14.246841 0.000000
						}
					}
				}
				JOINT HairG
				{
					OFFSET -8.087700 17.612701 -11.592200
					CHANNELS 3 Xrotation Yrotation Zrotation
					JOINT HairG1
					{
						OFFSET -0.293600 -6.081398 -0.910100
						CHANNELS 3 Xrotation Yrotation Zrotation
						End Site
						{
							OFFSET 0.000000 6.156120 0.000000
						}
					}
				}
			}
		}
	}
	JOINT Pouch
	{
		OFFSET 0.000000 4.394501 10.847300
		CHANNELS 3 Xrotation Yrotation Zrotation
		End Site
		{
			OFFSET 0.000000 21.880577 0.000000
		}
	}
	JOINT Bag
	{
		OFFSET -13.229000 4.813004 -0.593300
		CHANNELS 3 Xrotation Yrotation Zrotation
		End Site
		{
			OFFSET 0.000000 21.880577 0.000000
		}
	}
	JOINT OccupyGuyFacialAnim_Joint
	{
		OFFSET 1.000000 -70.206398 -1.655000
		CHANNELS 3 Xrotation Yrotation Zrotation
		End Site
		{
			OFFSET 0.000000 21.880577 0.000000
		}
	}
}
MOTION
Frames: 4
Frame Time: 0.033333
-15.186261 68.629997 -85.149765 4.002364 14.664315 -0.034274 -0.000000 -0.000001 0.000000 -36.437806 0.136279 0.479275 42.116780 9.205147 5.262121 -2.629194 7.400704 -6.260756 0.000000 -0.000000 0.000000 0.000001 -0.000001 -0.000000 -19.567730 -2.679925 9.930220 27.174913 -3.862879 -2.480893 -11.724674 1.066172 -8.056571 -0.000000 0.000000 -0.000000 0.000001 -0.000001 -0.000001 2.862293 1.411694 0.052167 2.172401 0.765051 -0.169447 2.171845 0.768655 -0.158656 -0.699297 0.015957 0.086456 -5.353508 1.769425 -1.546764 -0.000000 -0.000001 0.000000 -0.000000 -0.000001 0.000000 -0.000000 -0.000001 0.000000 -0.000000 -0.000001 0.000000 -0.000000 0.000001 0.000000 -0.000000 -0.000001 0.000000 -0.000000 0.000001 0.000000 -0.000000 -0.000001 0.000000 -0.000000 -0.000001 0.000000 0.590335 -2.372416 -9.830893 4.192464 -17.485522 -68.616101 -0.000004 -3.026646 0.000015 -28.528063 -21.530390 11.671678 5.358060 -0.141367 9.666152 3.545772 27.155809 3.560551 0.000002 0.000003 -0.000006 -1.578835 0.825934 -19.703489 0.405089 2.870989 -21.069192 0.000003 -0.000002 -0.000002 0.409502 7.162243 -25.647927 0.416497 2.993234 -22.185337 -0.000001 0.000002 0.000001 2.386875 10.570817 -32.882334 0.471655 2.115278 -18.421985 -0.000001 0.000000 0.000001 2.967938 13.388247 -36.938903 0.139965 1.667045 -18.441902 -0.000000 0.000001 0.000001 -0.000000 0.000000 -0.000000 0.574014 4.241153 11.730087 0.644715 18.029334 65.105582 -0.000008 17.058415 0.000008 -12.282756 12.122428 -7.341296 0.789342 -8.211549 -4.825412 0.020115 -13.361249 -9.371046 0.000000 0.000000 0.000003 -1.070476 -2.247351 17.231258 0.405441 -2.871949 21.079326 -0.000002 0.000002 0.000002 0.438988 -7.256203 26.595136 0.417436 -2.995674 22.211584 0.000001 -0.000001 -0.000001 2.698243 -11.184204 32.166093 0.472406 -2.116950 18.440367 0.000000 -0.000002 0.000001 4.305379 -16.260305 34.920961 0.139788 -1.666341 18.434725 -0.000000 0.000002 -0.000001 -0.000001 0.000001 -0.000000 -0.000000 -0.000000 0.000000 -0.000000 -0.000000 0.000000 -0.000000 -0.000000 0.000000 -0.000000 -0.000000 0.000000 -0.000000 -0.000000 0.000000 -0.000000 -0.000000 0.000000 -0.000000 -0.000000 0.000000 -0.000000 -0.000000 0.000000 -0.000000 -0.000000 0.000000 -0.000000 -0.000000 0.000000 -0.000000 -0.000001 0.000000 -0.000000 -0.000001 0.000000 -0.000000 -0.000001 0.000000 
-15.834410 68.785965 -87.504539 3.940048 14.378358 0.372688 -0.000001 -0.000000 -0.000000 -34.332899 1.015798 1.148977 49.254389 9.532663 4.926513 -3.630891 6.916370 -6.974928 -0.000001 0.000002 -0.000001 -0.000000 -0.000001 -0.000001 -20.863105 -2.672175 9.288658 25.060946 -3.240551 -2.013318 -8.192084 0.976251 -8.563347 -0.000000 0.000000 0.000000 -0.000001 -0.000000 -0.000000 2.659128 1.249973 -0.539115 2.059905 0.748469 -0.208874 2.060597 0.749061 -0.197254 -0.685466 0.059332 0.168363 -5.001666 2.282055 -1.340813 0.000000 0.000001 0.000000 0.000000 0.000001 0.000000 0.000000 0.000001 -0.000000 0.000000 0.000001 -0.000000 0.000000 0.000001 0.000000 0.000000 0.000001 -0.000000 0.000000 0.000001 0.000000 0.000000 0.000001 0.000000 0.000000 0.000001 0.000000 0.589509 -2.125357 -9.762955 7.321106 -16.772288 -68.538544 -0.000001 -1.659891 0.000000 -23.031883 -17.739994 11.765430 5.358064 -0.141366 9.666155 3.545765 27.155811 3.560555 0.000001 -0.000002 -0.000002 -1.578832 0.825933 -19.703489 0.405088 2.870992 -21.069190 0.000002 0.000000 0.000002 0.409503 7.162241 -25.647927 0.416498 2.993235 -22.185339 0.000001 0.000001 -0.000001 2.386877 10.570815 -32.882330 0.471660 2.115278 -18.421985 -0.000002 0.000001 -0.000003 2.967939 13.388247 -36.938896 0.139965 1.667045 -18.441902 0.000001 -0.000000 -0.000001 0.000001 0.000001 0.000000 0.573169 4.298175 11.751580 1.222479 19.003813 64.501875 0.000006 22.629233 -0.000010 -13.860112 13.395849 -8.214429 0.789346 -8.211547 -4.825410 0.020113 -13.361247 -9.371045 0.000004 0.000000 0.000002 -1.070469 -2.247356 17.231251 0.405444 -2.871952 21.079326 0.000000 -0.000002 -0.000004 0.438990 -7.256205 26.595131 0.417431 -2.995673 22.211584 0.000001 -0.000003 -0.000005 2.698245 -11.184209 32.166093 0.472406 -2.116950 18.440363 -0.000001 -0.000000 0.000003 4.305383 -16.260305 34.920961 0.139798 -1.666343 18.434718 0.000001 -0.000001 0.000000 0.000000 -0.000001 0.000000 0.000000 0.000001 0.000000 0.000001 -0.000001 0.000000 0.000000 0.000001 -0.000000 0.000000 0.000001 -0.000000 0.000000 0.000001 0.000000 0.000001 -0.000001 0.000000 0.000000 0.000001 -0.000000 0.000000 0.000001 -0.000000 0.000000 0.000001 0.000000 0.000001 -0.000001 0.000000 -0.000001 -0.000000 -0.000000 -0.000001 -0.000000 -0.000000 -0.000001 -0.000000 -0.000000 
-15.834410 68.785965 -87.504539 3.940048 14.378358 0.372688 -0.000001 -0.000000 -0.000000 -34.332899 1.015798 1.148977 49.254389 9.532663 4.926513 -3.630891 6.916370 -6.974928 -0.000001 0.000002 -0.000001 -0.000000 -0.000001 -0.000001 -20.863105 -2.672175 9.288658 25.060946 -3.240551 -2.013318 -8.192084 0.976251 -8.563347 -0.000000 0.000000 0.000000 -0.000001 -0.000000 -0.000000 2.659128 1.249973 -0.539115 2.059905 0.748469 -0.208874 2.060597 0.749061 -0.197254 -0.685466 0.059332 0.168363 -5.001666 2.282055 -1.340813 0.000000 0.000001 0.000000 0.000000 0.000001 0.000000 0.000000 0.000001 -0.000000 0.000000 0.000001 -0.000000 0.000000 0.000001 0.000000 0.000000 0.000001 -0.000000 0.000000 0.000001 0.000000 0.000000 0.000001 0.000000 0.000000 0.000001 0.000000 0.589509 -2.125357 -9.762955 7.321106 -16.772288 -68.538544 -0.000001 -1.659891 0.000000 -23.031883 -17.739994 11.765430 5.358064 -0.141366 9.666155 3.545765 27.155811 3.560555 0.000001 -0.000002 -0.000002 -1.578832 0.825933 -19.703489 0.405088 2.870992 -21.069190 0.000002 0.000000 0.000002 0.409503 7.162241 -25.647927 0.416498 2.993235 -22.185339 0.000001 0.000001 -0.000001 2.386877 10.570815 -32.882330 0.471660 2.115278 -18.421985 -0.000002 0.000001 -0.000003 2.967939 13.388247 -36.938896 0.139965 1.667045 -18.441902 0.000001 -0.000000 -0.000001 0.000001 0.000001 0.000000 0.573169 4.298175 11.751580 1.222479 19.003813 64.501875 0.000006 22.629233 -0.000010 -13.860112 13.395849 -8.214429 0.789346 -8.211547 -4.825410 0.020113 -13.361247 -9.371045 0.000004 0.000000 0.000002 -1.070469 -2.247356 17.231251 0.405444 -2.871952 21.079326 0.000000 -0.000002 -0.000004 0.438990 -7.256205 26.595131 0.417431 -2.995673 22.211584 0.000001 -0.000003 -0.000005 2.698245 -11.184209 32.166093 0.472406 -2.116950 18.440363 -0.000001 -0.000000 0.000003 4.305383 -16.260305 34.920961 0.139798 -1.666343 18.434718 0.000001 -0.000001 0.000000 0.000000 -0.000001 0.000000 0.000000 0.000001 0.000000 0.000001 -0.000001 0.000000 0.000000 0.000001 -0.000000 0.000000 0.000001 -0.000000 0.000000 0.000001 0.000000 0.000001 -0.000001 0.000000 0.000000 0.000001 -0.000000 0.000000 0.000001 -0.000000 0.000000 0.000001 0.000000 0.000001 -0.000001 0.000000 -0.000001 -0.000000 -0.000000 -0.000001 -0.000000 -0.000000 -0.000001 -0.000000 -0.000000 
-15.834410 68.785965 -87.504539 3.940048 14.378358 0.372688 -0.000001 -0.000000 -0.000000 -34.332899 1.015798 1.148977 49.254389 9.532663 4.926513 -3.630891 6.916370 -6.974928 -0.000001 0.000002 -0.000001 -0.000000 -0.000001 -0.000001 -20.863105 -2.672175 9.288658 25.060946 -3.240551 -2.013318 -8.192084 0.976251 -8.563347 -0.000000 0.000000 0.000000 -0.000001 -0.000000 -0.000000 2.659128 1.249973 -0.539115 2.059905 0.748469 -0.208874 2.060597 0.749061 -0.197254 -0.685466 0.059332 0.168363 -5.001666 2.282055 -1.340813 0.000000 0.000001 0.000000 0.000000 0.000001 0.000000 0.000000 0.000001 -0.000000 0.000000 0.000001 -0.000000 0.000000 0.000001 0.000000 0.000000 0.000001 -0.000000 0.000000 0.000001 0.000000 0.000000 0.000001 0.000000 0.000000 0.000001 0.000000 0.589509 -2.125357 -9.762955 7.321106 -16.772288 -68.538544 -0.000001 -1.659891 0.000000 -23.031883 -17.739994 11.765430 5.358064 -0.141366 9.666155 3.545765 27.155811 3.560555 0.000001 -0.000002 -0.000002 -1.578832 0.825933 -19.703489 0.405088 2.870992 -21.069190 0.000002 0.000000 0.000002 0.409503 7.162241 -25.647927 0.416498 2.993235 -22.185339 0.000001 0.000001 -0.000001 2.386877 10.570815 -32.882330 0.471660 2.115278 -18.421985 -0.000002 0.000001 -0.000003 2.967939 13.388247 -36.938896 0.139965 1.667045 -18.441902 0.000001 -0.000000 -0.000001 0.000001 0.000001 0.000000 0.573169 4.298175 11.751580 1.222479 19.003813 64.501875 0.000006 22.629233 -0.000010 -13.860112 13.395849 -8.214429 0.789346 -8.211547 -4.825410 0.020113 -13.361247 -9.371045 0.000004 0.000000 0.000002 -1.070469 -2.247356 17.231251 0.405444 -2.871952 21.079326 0.000000 -0.000002 -0.000004 0.438990 -7.256205 26.595131 0.417431 -2.995673 22.211584 0.000001 -0.000003 -0.000005 2.698245 -11.184209 32.166093 0.472406 -2.116950 18.440363 -0.000001 -0.000000 0.000003 4.305383 -16.260305 34.920961 0.139798 -1.666343 18.434718 0.000001 -0.000001 0.000000 0.000000 -0.000001 0.000000 0.000000 0.000001 0.000000 0.000001 -0.000001 0.000000 0.000000 0.000001 -0.000000 0.000000 0.000001 -0.000000 0.000000 0.000001 0.000000 0.000001 -0.000001 0.000000 0.000000 0.000001 -0.000000 0.000000 0.000001 -0.000000 0.000000 0.000001 0.000000 0.000001 -0.000001 0.000000 -0.000001 -0.000000 -0.000000 -0.000001 -0.000000 -0.000000 -0.000001 -0.000000 -0.000000 
